<svg xmlns="http://www.w3.org/2000/svg" width="1200" height="590" viewBox="0 0 1200 590" role="img" aria-labelledby="title desc">
<title id="title">From rotating video to auditable dossier</title>
<desc id="desc">Research pipeline; certificate labels stay out of held-out inference</desc>
<rect width="1200" height="590" rx="28" fill="#071521"/>
<rect x="1" y="1" width="1198" height="588" rx="27" fill="none" stroke="#254256" stroke-width="2"/>
<rect x="52" y="46" width="8" height="42" rx="4" fill="#8bd8ff"/>
<text x="77" y="67" fill="#8bd8ff" font-family="Arial, Helvetica, sans-serif" font-size="15" font-weight="700" letter-spacing="2">DIAMOND GRADING  /  SYSTEM DESIGN</text>
<text x="52" y="120" fill="#f1f7fb" font-family="Arial, Helvetica, sans-serif" font-size="37" font-weight="700">From rotating video to auditable dossier</text>
<text x="52" y="154" fill="#a9bfcb" font-family="Arial, Helvetica, sans-serif" font-size="19">Research pipeline; certificate labels stay out of held-out inference</text>
<rect x="52" y="211" width="208" height="224" rx="18" fill="#102637" stroke="#2d4b5d" stroke-width="2"/>
<circle cx="82" cy="244" r="15" fill="#8bd8ff" opacity=".18"/>
<text x="82" y="250" text-anchor="middle" fill="#8bd8ff" font-family="Arial, Helvetica, sans-serif" font-size="12" font-weight="700">01</text>
<text x="72" y="295" fill="#8bd8ff" font-family="Arial, Helvetica, sans-serif" font-size="15" font-weight="700" letter-spacing="1.4">INGEST</text>
<rect x="72" y="315" width="168" height="1" fill="#315469"/>
<text x="72" y="357" fill="#f1f7fb" font-family="Arial, Helvetica, sans-serif" font-size="19">360° video</text>
<text x="72" y="388" fill="#a9bfcb" font-family="Arial, Helvetica, sans-serif" font-size="17">Certificate labels</text>
<path d="M 269 323 H 280" stroke="#8bd8ff" stroke-width="3" stroke-linecap="round"/>
<path d="M 275 317 L 282 323 L 275 329" fill="none" stroke="#8bd8ff" stroke-width="3" stroke-linecap="round" stroke-linejoin="round"/>
<rect x="284" y="211" width="208" height="224" rx="18" fill="#102637" stroke="#2d4b5d" stroke-width="2"/>
<circle cx="314" cy="244" r="15" fill="#8bd8ff" opacity=".18"/>
<text x="314" y="250" text-anchor="middle" fill="#8bd8ff" font-family="Arial, Helvetica, sans-serif" font-size="12" font-weight="700">02</text>
<text x="304" y="295" fill="#8bd8ff" font-family="Arial, Helvetica, sans-serif" font-size="15" font-weight="700" letter-spacing="1.4">PREPARE</text>
<rect x="304" y="315" width="168" height="1" fill="#315469"/>
<text x="304" y="357" fill="#f1f7fb" font-family="Arial, Helvetica, sans-serif" font-size="19">Extract frames</text>
<text x="304" y="388" fill="#a9bfcb" font-family="Arial, Helvetica, sans-serif" font-size="17">Stone-level split</text>
<path d="M 501 323 H 512" stroke="#8bd8ff" stroke-width="3" stroke-linecap="round"/>
<path d="M 507 317 L 514 323 L 507 329" fill="none" stroke="#8bd8ff" stroke-width="3" stroke-linecap="round" stroke-linejoin="round"/>
<rect x="516" y="211" width="208" height="224" rx="18" fill="#102637" stroke="#2d4b5d" stroke-width="2"/>
<circle cx="546" cy="244" r="15" fill="#8bd8ff" opacity=".18"/>
<text x="546" y="250" text-anchor="middle" fill="#8bd8ff" font-family="Arial, Helvetica, sans-serif" font-size="12" font-weight="700">03</text>
<text x="536" y="295" fill="#8bd8ff" font-family="Arial, Helvetica, sans-serif" font-size="15" font-weight="700" letter-spacing="1.4">PREDICT</text>
<rect x="536" y="315" width="168" height="1" fill="#315469"/>
<text x="536" y="357" fill="#f1f7fb" font-family="Arial, Helvetica, sans-serif" font-size="19">Grading heads</text>
<text x="536" y="388" fill="#a9bfcb" font-family="Arial, Helvetica, sans-serif" font-size="17">Multi-view signals</text>
<path d="M 733 323 H 744" stroke="#8bd8ff" stroke-width="3" stroke-linecap="round"/>
<path d="M 739 317 L 746 323 L 739 329" fill="none" stroke="#8bd8ff" stroke-width="3" stroke-linecap="round" stroke-linejoin="round"/>
<rect x="748" y="211" width="208" height="224" rx="18" fill="#102637" stroke="#2d4b5d" stroke-width="2"/>
<circle cx="778" cy="244" r="15" fill="#8bd8ff" opacity=".18"/>
<text x="778" y="250" text-anchor="middle" fill="#8bd8ff" font-family="Arial, Helvetica, sans-serif" font-size="12" font-weight="700">04</text>
<text x="768" y="295" fill="#8bd8ff" font-family="Arial, Helvetica, sans-serif" font-size="15" font-weight="700" letter-spacing="1.4">MEASURE</text>
<rect x="768" y="315" width="168" height="1" fill="#315469"/>
<text x="768" y="357" fill="#f1f7fb" font-family="Arial, Helvetica, sans-serif" font-size="19">Proportions</text>
<text x="768" y="388" fill="#a9bfcb" font-family="Arial, Helvetica, sans-serif" font-size="17">+ weighed carat</text>
<path d="M 965 323 H 976" stroke="#8bd8ff" stroke-width="3" stroke-linecap="round"/>
<path d="M 971 317 L 978 323 L 971 329" fill="none" stroke="#8bd8ff" stroke-width="3" stroke-linecap="round" stroke-linejoin="round"/>
<rect x="980" y="211" width="208" height="224" rx="18" fill="#102637" stroke="#2d4b5d" stroke-width="2"/>
<circle cx="1010" cy="244" r="15" fill="#8bd8ff" opacity=".18"/>
<text x="1010" y="250" text-anchor="middle" fill="#8bd8ff" font-family="Arial, Helvetica, sans-serif" font-size="12" font-weight="700">05</text>
<text x="1000" y="295" fill="#8bd8ff" font-family="Arial, Helvetica, sans-serif" font-size="15" font-weight="700" letter-spacing="1.4">REPORT</text>
<rect x="1000" y="315" width="168" height="1" fill="#315469"/>
<text x="1000" y="357" fill="#f1f7fb" font-family="Arial, Helvetica, sans-serif" font-size="19">Digital dossier</text>
<text x="1000" y="388" fill="#a9bfcb" font-family="Arial, Helvetica, sans-serif" font-size="17">Certificate QC</text>
<rect x="52" y="474" width="1096" height="65" rx="13" fill="#112d3c" stroke="#2d4b5d"/>
<circle cx="78" cy="507" r="6" fill="#8bd8ff"/>
<text x="98" y="514" fill="#d8e9ef" font-family="Arial, Helvetica, sans-serif" font-size="17" font-weight="600">CAPTURE LIMITS   •   UV for fluorescence  /  microscope for inclusions  /  scale for carat</text>
</svg>
